<svg width="33" height="33" viewBox="0 0 33 33" fill="none" xmlns="http://www.w3.org/2000/svg">
<circle cx="16.278" cy="16" r="16" fill="#628FDB"/>
<path d="M16.6861 16.233C16.8154 16.1901 16.946 16.1518 17.0772 16.1134C16.8284 15.5501 16.5568 14.9855 16.2729 14.428C11.1665 15.9575 6.26676 15.847 6.09133 15.8405C6.08808 15.9471 6.08289 16.0497 6.08289 16.1563C6.08289 18.7046 7.04386 21.0268 8.62404 22.7831C8.62274 22.7805 8.62015 22.7779 8.62015 22.7779C8.62015 22.7779 11.3348 17.9639 16.6861 16.233Z" fill="black"/>
<path d="M15.4503 12.9018C13.7344 9.85186 11.9008 7.36334 11.7689 7.18726C9.0029 8.49325 6.93866 11.0415 6.29541 14.1129C6.55661 14.1155 10.689 14.1675 15.4503 12.9018Z" fill="black"/>
<path d="M22.5495 8.71412C20.8029 7.17487 18.51 6.24054 16 6.24054C15.1943 6.24054 14.4127 6.338 13.6622 6.51863C13.8117 6.7181 15.6751 9.18974 17.3703 12.3046C21.1129 10.9005 22.5254 8.75051 22.5495 8.71412Z" fill="black"/>
<path d="M13.6252 6.52844C13.6135 6.52974 13.6037 6.53104 13.592 6.53624C13.6109 6.53104 13.6226 6.52844 13.6226 6.52844H13.6252Z" fill="black"/>
<path d="M9.90406 23.9741L9.90601 23.9702C9.83259 23.913 9.75462 23.861 9.6825 23.7999C9.81439 23.9071 9.90406 23.9741 9.90406 23.9741Z" fill="black"/>
<path d="M18.1331 13.7815C18.3637 14.2552 18.5859 14.736 18.7932 15.2194C18.8653 15.3935 18.9368 15.5631 19.0063 15.7334C22.4136 15.3045 25.7702 16.0264 25.9138 16.0556C25.891 13.7042 25.0496 11.547 23.6585 9.85706C23.639 9.8837 22.0491 12.1825 18.1331 13.7815Z" fill="black"/>
<path d="M17.6874 17.7787C11.8345 19.8196 9.9242 23.9312 9.90601 23.9702C11.5882 25.2833 13.6999 26.0728 15.9993 26.0728C17.3722 26.0728 18.6808 25.7934 19.8712 25.2872C19.7237 24.4204 19.148 21.3835 17.7517 17.7567C17.7309 17.7651 17.7095 17.7716 17.6874 17.7787Z" fill="black"/>
<path d="M16 0.156982C7.16345 0.156982 0 7.32173 0 16.157C0 24.9935 7.1628 32.1557 16 32.1557C24.8365 32.1557 32 24.9935 32 16.157C32 7.32173 24.8359 0.156982 16 0.156982ZM26.6987 20.6773C26.4083 21.3666 26.0477 22.03 25.6279 22.6492C25.2128 23.2646 24.7358 23.8422 24.2102 24.3678C23.6845 24.8922 23.1076 25.3691 22.4929 25.7856C21.8724 26.2047 21.2071 26.5646 20.5196 26.8564C19.8179 27.152 19.0843 27.3794 18.3384 27.5327C17.573 27.69 16.7862 27.7699 15.9994 27.7699C15.2125 27.7699 14.4257 27.69 13.6603 27.5327C12.9144 27.3794 12.1795 27.152 11.4791 26.8564C10.7903 26.5646 10.1256 26.204 9.50514 25.7856C8.89113 25.3691 8.31285 24.8922 7.78786 24.3678C7.26221 23.8422 6.7853 23.2652 6.37011 22.6492C5.95103 22.03 5.59107 21.366 5.29933 20.6773C5.00305 19.9755 4.77498 19.242 4.62164 18.4948C4.46636 17.7294 4.38709 16.9438 4.38709 16.157C4.38709 15.3701 4.46636 14.5833 4.62164 13.8192C4.77498 13.072 5.00305 12.3371 5.29933 11.6367C5.59107 10.9473 5.95167 10.2826 6.37011 9.66277C6.7853 9.04746 7.26221 8.47113 7.78786 7.94419C8.31285 7.41985 8.89048 6.94423 9.50514 6.52774C10.1256 6.10801 10.7903 5.7474 11.4791 5.45566C12.1795 5.15873 12.9144 4.93132 13.6603 4.77928C14.4257 4.62334 15.2125 4.54342 15.9994 4.54342C16.7862 4.54342 17.573 4.62334 18.3384 4.77928C19.0843 4.93132 19.8179 5.15873 20.5196 5.45566C21.2077 5.7474 21.8724 6.10801 22.4929 6.52774C23.1069 6.94423 23.6845 7.41985 24.2102 7.94419C24.7358 8.47113 25.2128 9.04681 25.6279 9.66277C26.0477 10.282 26.4083 10.9473 26.6987 11.6367C26.9957 12.3371 27.2231 13.072 27.3751 13.8192C27.5323 14.5833 27.6123 15.3701 27.6123 16.157C27.6123 16.9438 27.5323 17.7294 27.3751 18.4948C27.2231 19.242 26.9963 19.9755 26.6987 20.6773Z" fill="black"/>
<path d="M19.6113 17.2979C20.9121 20.8728 21.4397 23.7837 21.5417 24.3815C23.7678 22.8793 25.3499 20.4934 25.7904 17.7294C25.5864 17.6637 22.812 16.7853 19.6113 17.2979Z" fill="black"/>
</svg>
