<svg width="24" height="24" viewBox="0 0 24 24" fill="none" xmlns="http://www.w3.org/2000/svg">
<circle cx="12" cy="12" r="12" fill="#628FDB"/>
<path fill-rule="evenodd" clip-rule="evenodd" d="M12 0C5.37258 0 0 5.37258 0 12C0 18.6274 5.37258 24 12 24C18.6274 24 24 18.6274 24 12C24 5.37258 18.6274 0 12 0ZM10.0733 4.54688C8.47087 4.54688 7.17188 5.84654 7.17188 7.44976C7.17188 8.46493 7.69271 9.35842 8.48162 9.87725C7.69271 10.3961 7.17188 11.2896 7.17188 12.3047C7.17188 13.3199 7.69267 14.2133 8.48152 14.7322C7.69267 15.251 7.17188 16.1445 7.17188 17.1596C7.17188 18.7668 8.49051 20.0625 10.0889 20.0625C11.7047 20.0625 13.0377 18.7527 13.0377 17.1281V14.4534C13.553 14.922 14.2375 15.2077 14.9887 15.2077H15.0517C16.6541 15.2077 17.9531 13.908 17.9531 12.3047C17.9531 11.2896 17.4323 10.3961 16.6434 9.87725C17.4323 9.35842 17.9531 8.46493 17.9531 7.44976C17.9531 5.84654 16.6541 4.54688 15.0517 4.54688H10.0733ZM10.0733 10.3527H12.0873V14.2567H10.0733L10.0608 14.2567C8.98902 14.25 8.12226 13.3787 8.12226 12.3047C8.12226 11.2267 8.99575 10.3527 10.0733 10.3527ZM14.9887 14.2568C13.9112 14.2568 13.0377 13.3828 13.0377 12.3047C13.0377 11.2267 13.9112 10.3527 14.9887 10.3527H15.0517C16.1293 10.3527 17.0027 11.2267 17.0027 12.3047C17.0027 13.3828 16.1293 14.2568 15.0517 14.2568H14.9887ZM10.0608 15.2076L10.0733 15.2077H12.0873V17.1281C12.0873 18.2196 11.1878 19.1116 10.0889 19.1116C9.00742 19.1116 8.12226 18.2337 8.12226 17.1596C8.12226 16.0857 8.98902 15.2143 10.0608 15.2076ZM8.12226 7.44976C8.12226 6.3717 8.99575 5.49775 10.0733 5.49775H12.0873V9.40178H10.0733C8.99575 9.40178 8.12226 8.52784 8.12226 7.44976ZM15.0517 9.40178H13.0377V5.49775H15.0517C16.1293 5.49775 17.0027 6.3717 17.0027 7.44976C17.0027 8.52784 16.1293 9.40178 15.0517 9.40178Z" fill="black"/>
</svg>
