<svg width="32" height="32" viewBox="0 0 32 32" fill="none" xmlns="http://www.w3.org/2000/svg">
<circle cx="16" cy="16" r="16" fill="#628FDB"/>
<path fill-rule="evenodd" clip-rule="evenodd" d="M16 0C7.16344 0 0 7.16344 0 16C0 24.8366 7.16344 32 16 32C24.8366 32 32 24.8366 32 16C32 7.16344 24.8366 0 16 0ZM13.431 6.0625C11.2945 6.0625 9.5625 7.79539 9.5625 9.93302C9.5625 11.2866 10.257 12.4779 11.3088 13.1697C10.257 13.8615 9.5625 15.0528 9.5625 16.4063C9.5625 17.7598 10.2569 18.9511 11.3087 19.6429C10.2569 20.3347 9.5625 21.526 9.5625 22.8795C9.5625 25.0224 11.3207 26.75 13.4519 26.75C15.6063 26.75 17.3836 25.0036 17.3836 22.8374V19.2711C18.0706 19.896 18.9833 20.2769 19.985 20.2769H20.069C22.2055 20.2769 23.9375 18.544 23.9375 16.4063C23.9375 15.0528 23.243 13.8615 22.1912 13.1697C23.243 12.4779 23.9375 11.2866 23.9375 9.93302C23.9375 7.79539 22.2055 6.0625 20.069 6.0625H13.431ZM13.431 13.8036H16.1164V19.009H13.431L13.4144 19.009C11.9854 19 10.8297 17.8382 10.8297 16.4063C10.8297 14.9689 11.9943 13.8036 13.431 13.8036ZM19.985 19.009C18.5482 19.009 17.3836 17.8437 17.3836 16.4063C17.3836 14.9689 18.5482 13.8036 19.985 13.8036H20.069C21.5057 13.8036 22.6703 14.9689 22.6703 16.4063C22.6703 17.8437 21.5057 19.009 20.069 19.009H19.985ZM13.4144 20.2768L13.431 20.2769H16.1164V22.8374C16.1164 24.2928 14.9171 25.4822 13.4519 25.4822C12.0099 25.4822 10.8297 24.3116 10.8297 22.8795C10.8297 21.4476 11.9854 20.2858 13.4144 20.2768ZM10.8297 9.93302C10.8297 8.4956 11.9943 7.33033 13.431 7.33033H16.1164V12.5357H13.431C11.9943 12.5357 10.8297 11.3705 10.8297 9.93302ZM20.069 12.5357H17.3836V7.33033H20.069C21.5057 7.33033 22.6703 8.4956 22.6703 9.93302C22.6703 11.3705 21.5057 12.5357 20.069 12.5357Z" fill="black"/>
</svg>
