<svg width="512" height="512" viewBox="0 0 512 512" fill="none" xmlns="http://www.w3.org/2000/svg">
<path fill-rule="evenodd" clip-rule="evenodd" d="M256 0C114.615 0 0 114.615 0 256C0 397.385 114.615 512 256 512C397.385 512 512 397.385 512 256C512 114.615 397.385 0 256 0ZM214.897 97C180.712 97 153 124.726 153 158.928C153 180.585 164.111 199.646 180.941 210.715C164.111 221.784 153 240.844 153 262.501C153 284.157 164.11 303.218 180.939 314.287C164.11 325.356 153 344.415 153 366.071C153 400.358 181.131 428 215.23 428C249.701 428 278.137 400.057 278.137 365.399V308.338C289.13 318.336 303.733 324.43 319.759 324.43H321.103C355.288 324.43 383 296.704 383 262.501C383 240.844 371.889 221.784 355.059 210.715C371.889 199.646 383 180.585 383 158.928C383 124.726 355.288 97 321.103 97H214.897ZM214.897 220.858H257.863V304.143H214.897C214.808 304.143 214.719 304.143 214.631 304.144C191.766 304 173.275 285.411 173.275 262.501C173.275 239.503 191.909 220.858 214.897 220.858ZM319.759 304.145C296.772 304.145 278.137 285.5 278.137 262.501C278.137 239.503 296.772 220.858 319.759 220.858H321.103C344.091 220.858 362.725 239.503 362.725 262.501C362.725 285.5 344.091 304.145 321.103 304.145H319.759ZM214.631 324.429L214.897 324.43H257.863V365.399C257.863 388.685 238.674 407.715 215.23 407.715C192.158 407.715 173.275 388.986 173.275 366.071C173.275 343.161 191.766 324.572 214.631 324.429ZM173.275 158.928C173.275 135.93 191.909 117.285 214.897 117.285H257.863V200.571H214.897C191.909 200.571 173.275 181.927 173.275 158.928ZM321.103 200.571H278.137V117.285H321.103C344.091 117.285 362.725 135.93 362.725 158.928C362.725 181.927 344.091 200.571 321.103 200.571Z" fill="black"/>
</svg>
