<svg width="32" height="32" viewBox="0 0 32 32" fill="none" xmlns="http://www.w3.org/2000/svg">
<circle cx="16" cy="16" r="16" fill="#628FDB"/>
<path fill-rule="evenodd" clip-rule="evenodd" d="M16 32C24.8366 32 32 24.8366 32 16C32 7.16344 24.8366 0 16 0C7.16344 0 0 7.16344 0 16C0 24.8366 7.16344 32 16 32ZM22.7368 12.156C22.986 12.2299 23.2352 12.3084 23.4843 12.3915C25.9945 13.255 27.8125 14.6125 27.8125 16.0117C27.8125 17.4754 25.8837 18.9022 23.2213 19.7841L23.2212 19.7842C23.0782 19.8304 22.9352 19.8765 22.7876 19.9181C22.8383 20.1305 22.8845 20.3382 22.926 20.5414C23.452 23.2011 23.046 25.3852 21.8001 26.1055C20.5958 26.8027 18.644 26.1147 16.6691 24.4155C16.4568 24.2308 16.2446 24.0415 16.0415 23.8429C15.88 23.9999 15.7185 24.1477 15.557 24.2908C13.5175 26.0778 11.4227 26.8166 10.1768 26.0963C8.96787 25.399 8.5895 23.3673 9.074 20.8046C9.12937 20.5229 9.18936 20.2505 9.25857 19.9735C9.04631 19.9134 8.83867 19.8442 8.63103 19.7749C6.07012 18.8976 4.1875 17.4523 4.1875 16.0117C4.1875 14.6172 5.95476 13.2689 8.41877 12.4146C8.69102 12.3177 8.98171 12.2253 9.27703 12.1422C9.21243 11.8836 9.15706 11.6296 9.1063 11.3711C8.59873 8.76679 8.95864 6.6843 10.1676 5.98244C11.4273 5.24826 13.5314 6.03324 15.6309 7.8987C15.7601 8.01414 15.8893 8.1342 16.0138 8.25425C16.1984 8.07417 16.3922 7.89409 16.5906 7.72324C18.5932 5.97783 20.5727 5.25288 21.7863 5.95012C23.046 6.67968 23.4197 8.89147 22.8522 11.6435L22.8521 11.6437C22.8152 11.8145 22.7783 11.9853 22.7368 12.156ZM21.2879 6.80897C20.5589 6.38878 18.9577 6.9752 17.2412 8.47127C17.0567 8.63289 16.8813 8.7945 16.7014 8.96535C17.412 9.73647 18.0672 10.5584 18.667 11.4172C19.7099 11.5096 20.7481 11.6758 21.7724 11.9067C21.814 11.7543 21.8463 11.6019 21.8786 11.4449C22.3677 9.06693 22.0677 7.25687 21.2879 6.80897ZM12.6316 19.6041C12.3778 19.2116 12.1379 18.8099 11.9025 18.4081C11.6718 18.011 11.455 17.6093 11.2427 17.203C10.9474 17.9048 10.6936 18.5928 10.4906 19.2578C11.1966 19.4101 11.9118 19.5256 12.6316 19.6041ZM12.6085 12.4931C11.8749 12.5855 11.1689 12.7055 10.5044 12.8533C10.7074 13.5043 10.952 14.1785 11.2427 14.8665C11.4503 14.4602 11.6718 14.0584 11.8979 13.666C12.124 13.2689 12.364 12.8764 12.6085 12.4931ZM12.7562 14.16C12.4055 14.7742 12.0733 15.3975 11.7687 16.0347C12.0779 16.672 12.4055 17.2953 12.7608 17.9094C13.1161 18.5236 13.4945 19.1238 13.8959 19.7103C14.5742 19.7518 15.2756 19.7749 16 19.7749C16.7244 19.7749 17.4396 19.7518 18.1272 19.701C18.5194 19.11 18.8931 18.5143 19.2438 17.9002C19.5991 17.2815 19.9313 16.6535 20.2405 16.0163C19.9267 15.3837 19.5945 14.7603 19.2392 14.1508C18.8839 13.5413 18.5102 12.9456 18.1179 12.3638C17.4304 12.313 16.7198 12.2853 16 12.2853C15.2802 12.2853 14.5742 12.313 13.8821 12.3638C13.4852 12.9502 13.1069 13.5459 12.7562 14.16ZM20.7758 17.166C20.5589 17.5816 20.3374 17.9926 20.1021 18.3989C19.8714 18.796 19.636 19.1931 19.3869 19.581C20.1159 19.4979 20.8404 19.3732 21.5556 19.2116C21.3295 18.5143 21.0711 17.8356 20.7758 17.166ZM20.0975 13.6567C20.3282 14.0538 20.5497 14.4602 20.7665 14.8665C21.048 14.2108 21.2972 13.5459 21.5094 12.8625C20.845 12.7101 20.1344 12.5855 19.3915 12.4931C19.636 12.8764 19.8714 13.2642 20.0975 13.6567ZM17.375 11.3249C16.9505 10.7523 16.4937 10.1982 16.0092 9.67182C15.5478 10.1751 15.0818 10.7292 14.6296 11.3249C15.5432 11.2833 16.4614 11.2833 17.375 11.3249ZM14.9664 8.64212C13.153 7.03523 11.4319 6.38878 10.6567 6.8413C9.92764 7.26149 9.64155 8.94688 10.0753 11.1817L10.0753 11.1818C10.1261 11.4219 10.1768 11.662 10.2368 11.8975C11.2612 11.6712 12.2948 11.5096 13.3376 11.4172C13.942 10.5584 14.6019 9.73647 15.3171 8.96535C15.2789 8.93005 15.2411 8.89475 15.2037 8.85976C15.1236 8.78487 15.045 8.71135 14.9664 8.64212ZM8.95403 18.8329C9.14321 18.8976 9.3324 18.9576 9.5262 19.013C9.84458 17.9972 10.2276 16.9998 10.6705 16.0347C10.2322 15.0835 9.85381 14.1 9.54004 13.098C9.27241 13.1765 9.00478 13.2596 8.74177 13.352C6.63767 14.0862 5.17957 15.1666 5.17957 16.0117C5.26724 16.5704 5.58101 17.0691 6.04705 17.3923C6.85454 18.0341 7.97119 18.5236 8.95403 18.8329ZM12.304 25.1681C13.2637 24.7895 14.1451 24.2354 14.9064 23.5382C15.0541 23.4089 15.2017 23.2704 15.3494 23.1272C14.6342 22.3515 13.9651 21.5249 13.356 20.6615C12.2994 20.583 11.2565 20.4306 10.2229 20.209C10.1583 20.4629 10.103 20.7215 10.0522 20.9801C9.63694 23.1734 9.94148 24.8034 10.6751 25.2282C11.2012 25.436 11.7918 25.4129 12.304 25.1681ZM14.6388 20.74C15.0956 21.3449 15.5663 21.9082 16.0369 22.4161C16.5214 21.8805 16.9782 21.3218 17.4027 20.7353C16.9413 20.7584 16.4753 20.7677 16 20.7677C15.5386 20.7677 15.0818 20.7584 14.6388 20.74ZM21.3064 25.2466C21.7494 24.8911 22.0262 24.3647 22.0677 23.8014C22.2154 22.7763 22.1785 21.7373 21.9524 20.74C21.9155 20.5553 21.8739 20.3659 21.8278 20.1766C20.7896 20.4121 19.7375 20.5737 18.6809 20.6615C18.0903 21.5296 17.4396 22.3561 16.7337 23.1364C16.9321 23.3211 17.1259 23.5012 17.3197 23.6675C19.0085 25.1174 20.5727 25.6715 21.3064 25.2466ZM22.5153 18.9576C22.6491 18.9207 22.7783 18.8791 22.9075 18.8376C25.2101 18.0757 26.8204 16.9074 26.8204 16.0024C26.8204 15.162 25.3116 14.0631 23.1613 13.3243C22.9398 13.2504 22.7091 13.1765 22.4692 13.1072C22.1554 14.1 21.7817 15.0697 21.3387 16.0117C21.7955 16.9675 22.1923 17.951 22.5153 18.9576ZM18.1133 16.0301C18.1133 17.1983 17.1674 18.1449 16 18.1449C14.8326 18.1449 13.8867 17.1983 13.8867 16.0301C13.8867 14.8619 14.8326 13.9153 16 13.9153C17.1674 13.9153 18.1133 14.8619 18.1133 16.0301Z" fill="black"/>
</svg>
