<svg width="512" height="512" viewBox="0 0 512 512" fill="none" xmlns="http://www.w3.org/2000/svg">
<path fill-rule="evenodd" clip-rule="evenodd" d="M256 512C397.385 512 512 397.385 512 256C512 114.615 397.385 0 256 0C114.615 0 0 114.615 0 256C0 397.385 114.615 512 256 512ZM363.789 194.497C367.776 195.679 371.762 196.935 375.749 198.265C415.912 212.08 445 233.801 445 256.186C445 279.606 414.14 302.435 371.541 316.546C369.252 317.285 366.964 318.024 364.601 318.689C365.413 322.087 366.152 325.412 366.816 328.663C375.232 371.218 368.736 406.163 348.802 417.688C329.533 428.844 298.303 417.836 266.705 390.648C263.309 387.693 259.913 384.664 256.664 381.487C254.08 383.999 251.496 386.363 248.912 388.653C216.281 417.245 182.762 429.066 162.829 417.54C143.486 406.384 137.432 373.877 145.184 332.874C146.07 328.367 147.03 324.008 148.137 319.575C144.741 318.615 141.419 317.507 138.096 316.399C97.1218 302.361 67 279.237 67 256.186C67 233.875 95.2761 212.302 134.7 198.634C139.056 197.082 143.707 195.605 148.432 194.275C147.399 190.138 146.513 186.074 145.701 181.937C137.58 140.269 143.338 106.949 162.681 95.7191C182.836 83.9722 216.502 96.5317 250.094 126.379C252.161 128.226 254.228 130.147 256.221 132.068C259.175 129.187 262.275 126.305 265.45 123.572C297.491 95.6451 329.164 84.046 348.58 95.2019C368.736 106.875 374.716 142.263 365.635 186.296C365.044 189.03 364.453 191.763 363.789 194.497ZM340.607 108.944C328.942 102.22 303.324 111.603 275.86 135.54C272.907 138.126 270.101 140.712 267.222 143.446C278.591 155.783 289.075 168.934 298.673 182.676C315.358 184.153 331.969 186.813 348.359 190.507C349.023 188.069 349.54 185.631 350.057 183.119C357.883 145.071 353.084 116.11 340.607 108.944ZM202.105 313.665C198.045 307.385 194.206 300.958 190.441 294.53C186.749 288.176 183.279 281.749 179.883 275.247C175.158 286.477 171.098 297.485 167.849 308.124C179.145 310.562 190.588 312.409 202.105 313.665ZM201.736 199.89C189.998 201.367 178.702 203.288 168.071 205.652C171.319 216.07 175.232 226.856 179.883 237.864C183.205 231.363 186.749 224.935 190.367 218.655C193.984 212.302 197.823 206.022 201.736 199.89ZM204.099 226.561C198.488 236.387 193.172 246.36 188.3 256.556C193.246 266.751 198.488 276.725 204.173 286.551C209.857 296.377 215.911 305.982 222.334 315.364C233.187 316.029 244.409 316.399 256 316.399C267.591 316.399 279.034 316.029 290.035 315.217C296.31 305.76 302.29 296.229 307.901 286.403C313.586 276.503 318.902 266.456 323.848 256.26C318.828 246.139 313.512 236.165 307.827 226.413C302.143 216.661 296.162 207.13 289.887 197.821C278.887 197.009 267.517 196.565 256 196.565C244.483 196.565 233.187 197.009 222.113 197.821C215.764 207.204 209.71 216.734 204.099 226.561ZM332.412 274.656C328.942 281.306 325.398 287.881 321.633 294.382C317.942 300.736 314.177 307.09 310.19 313.296C321.855 311.966 333.446 309.971 344.889 307.385C341.271 296.229 337.137 285.369 332.412 274.656ZM321.559 218.508C325.251 224.861 328.795 231.363 332.264 237.864C336.768 227.373 340.755 216.734 344.151 205.8C333.52 203.362 322.15 201.367 310.264 199.89C314.177 206.022 317.942 212.228 321.559 218.508ZM278.001 181.198C271.209 172.037 263.9 163.172 256.148 154.749C248.765 162.802 241.308 171.668 234.073 181.198C248.691 180.533 263.383 180.533 278.001 181.198ZM239.463 138.274C210.448 112.564 182.91 102.22 170.507 109.461C158.842 116.184 154.265 143.15 161.205 178.908L161.206 178.915C162.018 182.754 162.829 186.594 163.789 190.359C180.178 186.739 196.716 184.153 213.401 182.676C223.073 168.934 233.63 155.783 245.073 143.446C244.462 142.88 243.857 142.315 243.258 141.754C241.977 140.557 240.72 139.381 239.463 138.274ZM143.264 301.327C146.291 302.361 149.318 303.322 152.419 304.208C157.513 287.955 163.641 271.997 170.729 256.556C163.715 241.337 157.661 225.6 152.641 209.568C148.359 210.824 144.077 212.154 139.868 213.631C106.203 225.378 82.873 242.666 82.873 256.186C84.2758 265.126 89.2961 273.105 96.7527 278.276C109.673 288.546 127.539 296.377 143.264 301.327ZM196.864 402.69C212.22 396.632 226.321 387.767 238.503 376.611C240.865 374.542 243.228 372.326 245.59 370.035C234.147 357.624 223.442 344.399 213.697 330.583C196.79 329.328 180.105 326.89 163.567 323.343C162.534 327.407 161.648 331.544 160.836 335.681C154.191 370.774 159.064 396.854 170.802 403.651C179.219 406.975 188.669 406.606 196.864 402.69ZM234.221 331.839C241.53 341.518 249.06 350.531 256.591 358.658C264.343 350.088 271.652 341.148 278.444 331.766C271.061 332.135 263.604 332.283 256 332.283C248.617 332.283 241.308 332.135 234.221 331.839ZM340.902 403.946C347.99 398.258 352.42 389.835 353.084 380.822C355.447 364.421 354.856 347.798 351.238 331.839C350.648 328.884 349.983 325.855 349.245 322.826C332.634 326.594 315.801 329.18 298.894 330.583C289.444 344.473 279.034 357.698 267.739 370.183C270.913 373.138 274.014 376.02 277.115 378.679C304.136 401.878 329.164 410.743 340.902 403.946ZM360.245 303.322C362.386 302.731 364.453 302.066 366.521 301.401C403.361 289.211 429.127 270.519 429.127 256.039C429.127 242.593 404.985 225.009 370.581 213.188C367.037 212.006 363.346 210.824 359.507 209.716C354.487 225.6 348.507 241.115 341.419 256.186C348.728 271.48 355.077 287.216 360.245 303.322ZM289.813 256.482C289.813 275.174 274.678 290.319 256 290.319C237.322 290.319 222.187 275.174 222.187 256.482C222.187 237.79 237.322 222.645 256 222.645C274.678 222.645 289.813 237.79 289.813 256.482Z" fill="black"/>
</svg>
