<svg width="24" height="24" viewBox="0 0 24 24" fill="none" xmlns="http://www.w3.org/2000/svg">
<circle cx="12" cy="12" r="12" fill="#628FDB"/>
<path fill-rule="evenodd" clip-rule="evenodd" d="M12 24C18.6274 24 24 18.6274 24 12C24 5.37258 18.6274 0 12 0C5.37258 0 0 5.37258 0 12C0 18.6274 5.37258 24 12 24ZM17.0526 9.11703C17.2395 9.17244 17.4264 9.23131 17.6132 9.29365C19.4959 9.94125 20.8594 10.9594 20.8594 12.0087C20.8594 13.1065 19.4128 14.1767 17.416 14.8381C17.3087 14.8727 17.2014 14.9074 17.0907 14.9385C17.1287 15.0978 17.1634 15.2537 17.1945 15.4061C17.589 17.4008 17.2845 19.0389 16.3501 19.5791C15.4469 20.1021 13.983 19.5861 12.5018 18.3116C12.3426 18.1731 12.1834 18.0311 12.0311 17.8822C11.91 17.9999 11.7889 18.1108 11.6678 18.2181C10.1381 19.5583 8.56699 20.1124 7.63261 19.5722C6.7259 19.0493 6.44213 17.5255 6.8055 15.6035C6.84703 15.3922 6.89202 15.1879 6.94393 14.9801C6.78474 14.9351 6.629 14.8831 6.47327 14.8312C4.55259 14.1732 3.14062 13.0892 3.14062 12.0087C3.14062 10.9629 4.46607 9.95164 6.31408 9.31096C6.51826 9.23824 6.73629 9.16898 6.95777 9.10664C6.90932 8.9127 6.86779 8.72223 6.82972 8.5283C6.44905 6.5751 6.71898 5.01323 7.62568 4.48683C8.57045 3.9362 10.1485 4.52493 11.7231 5.92403C11.82 6.01061 11.9169 6.10065 12.0104 6.19069C12.1488 6.05563 12.2942 5.92057 12.443 5.79243C13.9449 4.48337 15.4295 3.93966 16.3397 4.46259C17.2845 5.00976 17.5648 6.6686 17.1391 8.73262C17.1114 8.86076 17.0838 8.98889 17.0526 9.11703ZM15.966 5.10673C15.4192 4.79159 14.2183 5.2314 12.9309 6.35346C12.7925 6.47467 12.661 6.59587 12.526 6.72401C13.059 7.30235 13.5504 7.91879 14.0003 8.56293C14.7824 8.63219 15.5611 8.75686 16.3293 8.93002C16.3605 8.81574 16.3847 8.70145 16.4089 8.58371C16.7758 6.8002 16.5508 5.44265 15.966 5.10673ZM9.47369 14.703C9.28336 14.4087 9.1034 14.1074 8.9269 13.8061C8.75387 13.5083 8.59122 13.207 8.43202 12.9022C8.21054 13.4286 8.0202 13.9446 7.86793 14.4433C8.39742 14.5576 8.93383 14.6442 9.47369 14.703ZM9.45639 9.36984C8.90614 9.4391 8.37665 9.52914 7.87831 9.63996C8.03058 10.1283 8.214 10.6339 8.43202 11.1499C8.58776 10.8451 8.75387 10.5438 8.92344 10.2495C9.09302 9.95164 9.27297 9.65728 9.45639 9.36984ZM9.56713 10.62C9.30412 11.0806 9.05495 11.5481 8.82654 12.0261C9.05841 12.504 9.30412 12.9715 9.57059 13.4321C9.83707 13.8927 10.1208 14.3429 10.4219 14.7827C10.9306 14.8139 11.4567 14.8312 12 14.8312C12.5433 14.8312 13.0797 14.8139 13.5954 14.7758C13.8895 14.3325 14.1699 13.8858 14.4329 13.4252C14.6993 12.9611 14.9485 12.4901 15.1804 12.0122C14.9451 11.5378 14.6959 11.0702 14.4294 10.6131C14.1629 10.156 13.8826 9.70922 13.5885 9.27287C13.0728 9.23477 12.5399 9.214 12 9.214C11.4601 9.214 10.9306 9.23477 10.4115 9.27287C10.1139 9.71269 9.83014 10.1594 9.56713 10.62ZM15.5818 12.8745C15.4192 13.1862 15.2531 13.4944 15.0766 13.7992C14.9035 14.097 14.727 14.3948 14.5401 14.6857C15.0869 14.6234 15.6303 14.5299 16.1667 14.4087C15.9971 13.8857 15.8033 13.3767 15.5818 12.8745ZM15.0731 10.2425C15.2461 10.5404 15.4122 10.8451 15.5749 11.1499C15.786 10.6581 15.9729 10.1594 16.1321 9.64689C15.6337 9.5326 15.1008 9.4391 14.5436 9.36984C14.727 9.65728 14.9035 9.94818 15.0731 10.2425ZM13.0313 8.49367C12.7129 8.06424 12.3703 7.64866 12.0069 7.25387C11.6609 7.63135 11.3113 8.04692 10.9722 8.49367C11.6574 8.4625 12.3461 8.4625 13.0313 8.49367ZM11.2248 6.48159C9.86475 5.27642 8.57391 4.79159 7.99252 5.13097C7.44573 5.44612 7.23116 6.71016 7.55647 8.38631C7.59454 8.56639 7.63261 8.74647 7.67759 8.92309C8.44587 8.7534 9.22106 8.63219 10.0032 8.56293C10.4565 7.91879 10.9514 7.30235 11.4878 6.72401C11.4592 6.69755 11.4309 6.67108 11.4028 6.64484C11.3427 6.58867 11.2838 6.53352 11.2248 6.48159ZM6.71552 14.1247C6.85741 14.1732 6.9993 14.2182 7.14465 14.2598C7.38343 13.4979 7.67067 12.7498 8.0029 12.0261C7.67413 11.3126 7.39036 10.575 7.15503 9.82351C6.95431 9.88238 6.75359 9.94472 6.55633 10.014C4.97825 10.5646 3.88467 11.375 3.88467 12.0087C3.95043 12.4278 4.18575 12.8018 4.53528 13.0442C5.14091 13.5256 5.97839 13.8927 6.71552 14.1247ZM9.22798 18.8761C9.94781 18.5921 10.6088 18.1766 11.1798 17.6536C11.2906 17.5567 11.4013 17.4528 11.512 17.3454C10.9756 16.7636 10.4738 16.1437 10.017 15.4961C9.22452 15.4372 8.44241 15.3229 7.66721 15.1567C7.61876 15.3472 7.57723 15.5411 7.53917 15.7351C7.2277 17.38 7.45611 18.6025 8.00636 18.9211C8.40088 19.077 8.84385 19.0597 9.22798 18.8761ZM10.9791 15.555C11.3217 16.0086 11.6747 16.4311 12.0277 16.8121C12.3911 16.4104 12.7337 15.9913 13.0521 15.5515C12.706 15.5688 12.3565 15.5758 12 15.5758C11.6539 15.5758 11.3113 15.5688 10.9791 15.555ZM15.9798 18.935C16.312 18.6683 16.5197 18.2735 16.5508 17.851C16.6616 17.0822 16.6339 16.303 16.4643 15.555C16.4366 15.4165 16.4055 15.2745 16.3709 15.1325C15.5922 15.3091 14.8032 15.4303 14.0107 15.4961C13.5677 16.1472 13.0797 16.7671 12.5503 17.3523C12.6991 17.4909 12.8444 17.6259 12.9898 17.7506C14.2564 18.838 15.4295 19.2536 15.9798 18.935ZM16.8865 14.2182C16.9869 14.1905 17.0838 14.1593 17.1807 14.1282C18.9075 13.5568 20.1153 12.6806 20.1153 12.0018C20.1153 11.3715 18.9837 10.5473 17.371 9.9932C17.2049 9.93779 17.0318 9.88238 16.8519 9.83043C16.6166 10.575 16.3362 11.3023 16.004 12.0087C16.3466 12.7256 16.6443 13.4632 16.8865 14.2182ZM13.585 12.0226C13.585 12.8988 12.8756 13.6087 12 13.6087C11.1244 13.6087 10.415 12.8988 10.415 12.0226C10.415 11.1464 11.1244 10.4365 12 10.4365C12.8756 10.4365 13.585 11.1464 13.585 12.0226Z" fill="black"/>
</svg>
