<svg width="24" height="24" viewBox="0 0 24 24" fill="none" xmlns="http://www.w3.org/2000/svg">
<circle cx="12" cy="12" r="12" fill="#628FDB"/>
<path fill-rule="evenodd" clip-rule="evenodd" d="M24 12C24 18.6274 18.6274 24 12 24C5.37258 24 0 18.6274 0 12C0 5.37258 5.37258 0 12 0C18.6274 0 24 5.37258 24 12ZM17.9408 5.82881C18.1252 6.08193 18.2359 6.35736 18.2872 6.64217C18.4185 7.36179 18.1725 8.14078 17.7899 8.76843C17.1194 9.86482 16.0101 10.6652 14.7869 11.0349C13.6793 11.3697 12.2321 11.5067 11.3187 11.0148C11.2183 10.9608 10.2143 10.2853 10.3076 10.1327C10.394 9.99118 10.6272 10.1272 10.9134 10.2942C11.0444 10.3706 11.1865 10.4535 11.3308 10.5193C12.266 10.946 13.8262 10.4969 14.9954 9.97999C16.0355 9.52064 17.2221 8.53541 17.2542 7.29661C17.2654 6.86761 17.0797 6.48548 16.7306 6.23504C16.1672 5.8306 15.4873 5.71631 14.8092 5.71587C14.328 5.71497 13.8342 5.7672 13.3637 5.86943C13.0271 5.94309 12.6937 6.03594 12.3673 6.14576C11.2205 6.53102 10.0415 7.1176 9.0813 7.85954C8.86747 8.02426 8.66167 8.20104 8.46927 8.39077C7.87599 8.97601 7.1028 9.83625 7.15503 10.7335C7.19834 11.4728 7.78938 12.1031 8.30097 12.5812C8.49638 12.7684 8.70396 12.9512 8.91652 13.1385C9.33576 13.5077 9.77439 13.8941 10.1772 14.3642C10.2118 14.4068 10.246 14.4519 10.2802 14.4968C10.2875 14.5065 10.2949 14.5162 10.3022 14.5258C10.3165 14.5442 10.6187 14.4465 10.8512 14.3714C10.9749 14.3314 11.079 14.2978 11.1094 14.2914C11.4089 14.2285 11.7187 14.2173 12.0245 14.2281C12.366 14.2397 12.724 14.2964 13.0517 14.3901C13.6548 14.5633 14.1923 14.9294 14.5123 15.4776C14.9222 16.1807 14.8284 17.1824 14.0838 17.6288C13.7325 17.8395 13.6119 17.7534 13.5776 17.6619C13.5472 17.5804 13.7208 17.478 13.8282 17.4147C13.8614 17.3952 13.8882 17.3793 13.9008 17.369C14.0296 17.2649 14.0888 17.1093 14.1464 16.9578C14.149 16.9508 14.1517 16.9438 14.1543 16.9369C14.2762 16.6164 14.2905 16.2083 14.0994 15.9101C14.0844 15.8866 14.0697 15.8629 14.055 15.8391C13.9859 15.7275 13.9169 15.6159 13.8124 15.5316C13.7787 15.5047 13.7456 15.4775 13.7126 15.4504C13.5791 15.3408 13.4475 15.2328 13.2919 15.1512C12.6071 14.7923 11.6776 14.8374 10.958 15.0544C10.9069 15.0696 10.8524 15.0891 10.7978 15.1086C10.7647 15.1204 10.7316 15.1322 10.6991 15.1432C10.7817 15.3017 10.8567 15.4668 10.9107 15.6454C11.066 16.1441 11.0745 16.6936 10.9553 17.1654C10.8969 17.4047 10.825 17.623 10.7223 17.844C10.6027 18.0699 10.483 18.2935 10.3094 18.4783C9.98573 18.8591 9.63039 19.1154 9.22058 19.3256C8.81479 19.5274 8.36927 19.6738 7.88358 19.6805C7.63984 19.6689 7.39476 19.6533 7.1595 19.5627C6.93986 19.5131 6.64077 19.3426 6.45729 19.1118C6.26444 18.8783 6.17516 18.6047 6.14034 18.3654C6.12064 18.2477 6.11902 18.1402 6.11734 18.0296L6.11713 18.0154C6.11866 17.9961 6.12007 17.9767 6.12148 17.9573C6.12914 17.8522 6.13687 17.746 6.164 17.6507C6.27203 17.1824 6.51041 16.8373 6.75237 16.5391C6.9979 16.2405 7.26842 15.9967 7.54654 15.7749C7.68716 15.6651 7.82733 15.5628 7.98447 15.4637C8.09159 15.4036 8.19747 15.3516 8.30268 15.2999C8.35224 15.2755 8.40165 15.2512 8.45097 15.2262C8.63087 15.1414 8.80676 15.0664 8.98086 14.995C8.72114 14.7292 8.41997 14.4686 8.09893 14.1908C7.8527 13.9777 7.59479 13.7545 7.33494 13.5111C7.022 13.2178 6.7046 12.8857 6.42336 12.4826C6.14078 12.0826 5.9091 11.5933 5.81312 11.0447C5.70866 10.4527 5.83276 9.90902 5.99525 9.44966C6.3006 8.63808 6.81576 7.9015 7.45904 7.32295C7.96706 6.86627 8.5282 6.46495 9.09425 6.08416C9.70181 5.67614 10.3433 5.31053 11.0317 5.0583C11.3223 4.95206 11.6187 4.86233 11.9196 4.78867C13.007 4.5235 14.1552 4.45163 15.2672 4.57886C16.2435 4.69046 17.3323 4.99357 17.9408 5.82881ZM9.63217 17.3145C9.71878 17.0547 9.77324 16.7869 9.77324 16.5356C9.78127 16.2324 9.69378 15.9356 9.53128 15.6378C9.25183 15.7892 8.97372 15.9508 8.71569 16.1244C8.3965 16.3485 8.07821 16.6945 7.82331 17.0516C7.69698 17.2333 7.58805 17.427 7.52064 17.6163C7.48582 17.7114 7.46618 17.8029 7.45502 17.8882C7.45094 17.9129 7.45094 17.9361 7.45094 17.959C7.45094 17.9762 7.45094 17.9933 7.44922 18.0109C7.45004 18.0228 7.45071 18.0354 7.45139 18.0482C7.45331 18.0843 7.45535 18.1228 7.46127 18.1547C7.47288 18.2484 7.50056 18.3163 7.52377 18.3685C7.55145 18.4158 7.58091 18.4395 7.6193 18.4681C7.63964 18.4831 7.68501 18.4956 7.73454 18.5094C7.76762 18.5185 7.80256 18.5282 7.83313 18.5395C7.85741 18.5484 7.88463 18.5483 7.91202 18.5483C7.92995 18.5482 7.94796 18.5482 7.96527 18.5507C7.97902 18.5509 7.99252 18.5523 8.00604 18.5536C8.03729 18.5567 8.06862 18.5597 8.10321 18.5498C8.48221 18.5118 8.92327 18.2743 9.26388 17.9029C9.44111 17.7226 9.53218 17.5333 9.63217 17.3145Z" fill="black"/>
</svg>
