<svg width="512" height="512" viewBox="0 0 512 512" fill="none" xmlns="http://www.w3.org/2000/svg">
<path fill-rule="evenodd" clip-rule="evenodd" d="M512 256C512 397.385 397.385 512 256 512C114.615 512 0 397.385 0 256C0 114.615 114.615 0 256 0C397.385 0 512 114.615 512 256ZM382.736 124.348C386.669 129.748 389.031 135.624 390.126 141.7C392.926 157.051 387.679 173.67 379.517 187.06C365.213 210.449 341.547 227.525 315.453 235.41C291.825 242.553 260.95 245.477 241.465 234.982C239.322 233.83 217.904 219.421 219.895 216.164C221.737 213.145 226.712 216.047 232.818 219.609C235.613 221.24 238.645 223.008 241.722 224.411C261.674 233.515 294.958 223.935 319.9 212.906C342.09 203.107 367.403 182.089 368.089 155.661C368.327 146.509 364.365 138.357 356.918 133.014C344.899 124.386 330.395 121.948 315.929 121.938C305.663 121.919 295.13 123.034 285.092 125.215C277.911 126.786 270.797 128.767 263.836 131.11C239.37 139.328 214.219 151.842 193.734 167.67C189.172 171.184 184.782 174.956 180.677 179.003C168.02 191.488 151.526 209.84 152.64 228.982C153.564 244.753 166.173 258.2 177.087 268.4C181.255 272.392 185.684 276.293 190.218 280.287C199.162 288.165 208.519 296.408 217.114 306.436C217.851 307.346 218.581 308.307 219.311 309.267C219.467 309.473 219.624 309.678 219.78 309.884C220.085 310.275 226.531 308.193 231.491 306.59C234.131 305.737 236.35 305.02 236.999 304.884C243.389 303.541 249.998 303.303 256.522 303.532C263.807 303.779 271.445 304.989 278.435 306.989C291.301 310.684 302.768 318.493 309.596 330.188C318.338 345.187 316.339 366.558 300.453 376.081C292.958 380.576 290.387 378.738 289.654 376.786C289.006 375.047 292.71 372.864 295 371.514C295.708 371.097 296.281 370.759 296.549 370.539C299.298 368.317 300.559 364.999 301.788 361.766C301.845 361.617 301.901 361.468 301.958 361.32C304.558 354.482 304.863 345.778 300.787 339.416C300.466 338.915 300.152 338.408 299.839 337.901C298.366 335.519 296.893 333.138 294.663 331.34C293.946 330.766 293.239 330.186 292.535 329.608C289.687 327.271 286.88 324.967 283.559 323.226C268.95 315.569 249.122 316.531 233.77 321.16C232.679 321.486 231.517 321.901 230.352 322.317C229.647 322.569 228.94 322.821 228.247 323.055C230.008 326.436 231.608 329.959 232.761 333.769C236.075 344.406 236.256 356.13 233.713 366.196C232.465 371.301 230.932 375.958 228.742 380.672C226.189 385.491 223.637 390.262 219.933 394.204C213.028 402.328 205.447 407.794 196.705 412.28C188.048 416.585 178.544 419.708 168.182 419.851C162.982 419.604 157.754 419.27 152.735 417.337C148.05 416.28 141.669 412.642 137.755 407.718C133.641 402.738 131.736 396.9 130.993 391.795C130.573 389.283 130.538 386.991 130.502 384.632L130.498 384.329C130.53 383.917 130.561 383.504 130.591 383.089C130.754 380.846 130.919 378.582 131.498 376.548C133.802 366.558 138.888 359.196 144.05 352.835C149.288 346.463 155.059 341.264 160.992 336.53C163.992 334.188 166.982 332.007 170.334 329.893C172.62 328.611 174.879 327.501 177.123 326.397C178.18 325.878 179.234 325.36 180.286 324.826C184.124 323.017 187.877 321.417 191.591 319.893C186.05 314.223 179.625 308.663 172.776 302.736C167.523 298.191 162.021 293.429 156.478 288.237C149.802 281.98 143.031 274.895 137.031 266.295C131.003 257.762 126.06 247.324 124.012 235.62C121.784 222.992 124.431 211.392 127.898 201.593C134.412 184.279 145.402 168.565 159.125 156.223C169.963 146.48 181.934 137.919 194.01 129.795C206.971 121.091 220.656 113.291 235.342 107.91C241.541 105.644 247.865 103.73 254.284 102.158C277.483 96.5013 301.977 94.968 325.7 97.6822C346.528 100.063 369.756 106.529 382.736 124.348ZM205.486 369.377C207.333 363.834 208.495 358.12 208.495 352.758C208.666 346.292 206.8 339.959 203.333 333.607C197.372 336.835 191.438 340.283 185.934 343.987C179.125 348.768 172.334 356.149 166.896 363.768C164.201 367.644 161.878 371.777 160.44 375.815C159.697 377.843 159.278 379.796 159.04 381.614C158.953 382.142 158.953 382.636 158.953 383.126C158.953 383.493 158.953 383.858 158.916 384.233C158.933 384.486 158.948 384.755 158.962 385.029C159.003 385.799 159.047 386.619 159.173 387.3C159.421 389.3 160.011 390.747 160.506 391.862C161.097 392.871 161.725 393.376 162.544 393.985C162.978 394.305 163.946 394.574 165.003 394.867C165.708 395.062 166.454 395.269 167.106 395.509C167.624 395.699 168.205 395.698 168.789 395.696C169.172 395.695 169.556 395.695 169.925 395.747C170.218 395.753 170.506 395.781 170.795 395.81C171.461 395.875 172.13 395.941 172.868 395.728C180.953 394.919 190.362 389.852 197.629 381.929C201.409 378.081 203.352 374.043 205.486 369.377Z" fill="black"/>
</svg>
