<svg width="32" height="32" viewBox="0 0 32 32" fill="none" xmlns="http://www.w3.org/2000/svg">
<circle cx="16" cy="16" r="16" fill="#628FDB"/>
<path fill-rule="evenodd" clip-rule="evenodd" d="M32 16C32 24.8366 24.8366 32 16 32C7.16344 32 0 24.8366 0 16C0 7.16344 7.16344 0 16 0C24.8366 0 32 7.16344 32 16ZM23.9211 7.77176C24.1669 8.10925 24.3145 8.47649 24.383 8.85624C24.558 9.81573 24.23 10.8544 23.7199 11.6913C22.8259 13.1531 21.3468 14.2203 19.7159 14.7132C18.2392 15.1596 16.3095 15.3423 15.0916 14.6864C14.9577 14.6144 13.6191 13.7138 13.7435 13.5102C13.8586 13.3216 14.1696 13.503 14.5512 13.7256C14.7259 13.8275 14.9154 13.938 15.1077 14.0257C16.3547 14.5947 18.435 13.9959 19.9938 13.3067C21.3807 12.6942 22.9628 11.3806 23.0056 9.72883C23.0205 9.15683 22.7729 8.64732 22.3075 8.31341C21.5563 7.77414 20.6498 7.62176 19.7456 7.62117C19.104 7.61998 18.4457 7.68962 17.8183 7.82592C17.3695 7.92413 16.9249 8.04794 16.4898 8.19436C14.9607 8.70803 13.3887 9.49015 12.1084 10.4794C11.8233 10.699 11.5489 10.9347 11.2924 11.1877C10.5013 11.968 9.47043 13.115 9.54007 14.3114C9.59781 15.2971 10.3859 16.1375 11.068 16.775C11.3285 17.0245 11.6053 17.2683 11.8887 17.518C12.4477 18.0103 13.0325 18.5255 13.5697 19.1523C13.6157 19.2091 13.6614 19.2692 13.707 19.3292C13.7168 19.342 13.7266 19.3549 13.7363 19.3678C13.7554 19.3922 14.1583 19.262 14.4683 19.1619C14.6333 19.1086 14.772 19.0637 14.8125 19.0553C15.2119 18.9713 15.625 18.9565 16.0327 18.9707C16.488 18.9862 16.9654 19.0618 17.4023 19.1868C18.2064 19.4178 18.9231 19.9058 19.3498 20.6368C19.8962 21.5742 19.7712 22.9099 18.7784 23.5051C18.31 23.786 18.1493 23.6712 18.1034 23.5491C18.063 23.4405 18.2945 23.304 18.4376 23.2196C18.4818 23.1936 18.5177 23.1725 18.5344 23.1587C18.7062 23.0198 18.785 22.8125 18.8618 22.6104C18.8654 22.6011 18.8689 22.5918 18.8725 22.5825C19.035 22.1552 19.054 21.6111 18.7992 21.2135C18.7792 21.1822 18.7596 21.1505 18.74 21.1188C18.6479 20.97 18.5559 20.8212 18.4165 20.7088C18.3717 20.6729 18.3275 20.6366 18.2835 20.6005C18.1055 20.4545 17.9301 20.3105 17.7225 20.2017C16.8094 19.7231 15.5702 19.7832 14.6107 20.0725C14.5425 20.0929 14.4699 20.1188 14.3971 20.1448C14.353 20.1606 14.3088 20.1763 14.2655 20.1909C14.3756 20.4022 14.4756 20.6225 14.5476 20.8606C14.7548 21.5254 14.7661 22.2581 14.6071 22.8873C14.5292 23.2063 14.4333 23.4974 14.2964 23.792C14.1369 24.0932 13.9774 24.3914 13.7459 24.6378C13.3143 25.1455 12.8405 25.4872 12.2941 25.7675C11.7531 26.0366 11.1591 26.2318 10.5115 26.2407C10.1865 26.2252 9.8597 26.2044 9.54602 26.0836C9.25317 26.0175 8.85438 25.7901 8.60975 25.4824C8.35261 25.1711 8.23357 24.8062 8.18714 24.4872C8.16088 24.3302 8.15871 24.1869 8.15648 24.0395L8.15619 24.0206C8.15823 23.9948 8.16012 23.969 8.162 23.9431C8.17221 23.8029 8.18252 23.6614 8.21869 23.5343C8.36273 22.9099 8.68058 22.4498 9.00318 22.0522C9.33055 21.654 9.69125 21.329 10.0621 21.0332C10.2496 20.8867 10.4365 20.7504 10.646 20.6183C10.7888 20.5382 10.93 20.4688 11.0702 20.3999C11.1363 20.3674 11.2022 20.335 11.268 20.3016C11.5079 20.1886 11.7424 20.0886 11.9745 19.9933C11.6282 19.639 11.2267 19.2915 10.7986 18.921C10.4703 18.6369 10.1264 18.3393 9.77994 18.0148C9.36269 17.6238 8.9395 17.1809 8.56451 16.6435C8.18774 16.1101 7.87882 15.4578 7.75085 14.7263C7.61157 13.937 7.77704 13.212 7.9937 12.5996C8.40083 11.5175 9.0877 10.5353 9.94541 9.76395C10.6228 9.15504 11.371 8.61994 12.1257 8.11222C12.9358 7.56819 13.7911 7.08071 14.7089 6.74442C15.0964 6.60276 15.4916 6.48312 15.8928 6.38491C17.3428 6.03135 18.8737 5.93552 20.3563 6.10515C21.6581 6.25396 23.1098 6.65811 23.9211 7.77176ZM12.8429 23.0861C12.9584 22.7397 13.031 22.3825 13.031 22.0474C13.0417 21.6433 12.9251 21.2474 12.7084 20.8504C12.3358 21.0522 11.965 21.2677 11.6209 21.4992C11.1954 21.798 10.771 22.2593 10.4311 22.7355C10.2627 22.9777 10.1174 23.2361 10.0276 23.4884C9.98112 23.6152 9.95493 23.7372 9.94005 23.8509C9.93461 23.8839 9.93461 23.9148 9.93461 23.9454C9.93461 23.9683 9.93461 23.9911 9.93232 24.0146C9.93341 24.0304 9.9343 24.0472 9.93521 24.0643C9.93777 24.1124 9.94049 24.1637 9.94839 24.2063C9.96386 24.3313 10.0008 24.4217 10.0317 24.4914C10.0686 24.5545 10.1079 24.586 10.1591 24.6241C10.1862 24.6441 10.2467 24.6609 10.3127 24.6792C10.3569 24.6914 10.4034 24.7043 10.4442 24.7193C10.4766 24.7312 10.5129 24.7311 10.5494 24.731C10.5733 24.731 10.5973 24.7309 10.6204 24.7342C10.6387 24.7346 10.6567 24.7364 10.6747 24.7381C10.7164 24.7422 10.7582 24.7463 10.8043 24.733C11.3096 24.6824 11.8977 24.3658 12.3519 23.8706C12.5882 23.6301 12.7096 23.3777 12.8429 23.0861Z" fill="black"/>
</svg>
