<svg width="32" height="32" viewBox="0 0 32 32" fill="none" xmlns="http://www.w3.org/2000/svg">
<circle cx="16" cy="16" r="16" fill="#628FDB"/>
<path d="M16 0C7.16767 0 0 7.16767 0 16C0 24.8322 7.16767 31.9999 16 31.9999C24.8322 31.9999 32 24.8322 32 16C32 7.16767 24.8323 0 16 0ZM22.4968 23.542C22.2258 23.542 22.0581 23.4581 21.8064 23.3096C17.7807 20.8839 13.0969 20.7806 8.47098 21.7289C8.21936 21.7934 7.89031 21.8967 7.70325 21.8967C7.07744 21.8967 6.68391 21.3998 6.68391 20.8773C6.68391 20.2128 7.07751 19.8967 7.56141 19.7935C12.8452 18.6258 18.2452 18.7289 22.8517 21.4838C23.2452 21.7355 23.4775 21.9613 23.4775 22.5483C23.4774 23.1354 23.0193 23.542 22.4968 23.542ZM24.2323 19.3096C23.8967 19.3096 23.6711 19.1612 23.4387 19.0387C19.4064 16.6516 13.3936 15.6903 8.04523 17.1419C7.73553 17.2257 7.56781 17.3095 7.27751 17.3095C6.58721 17.3095 6.02589 16.7483 6.02589 16.0581C6.02589 15.3676 6.36134 14.9097 7.02589 14.7225C8.8195 14.2193 10.6517 13.8452 13.3357 13.8452C17.5226 13.8452 21.5678 14.8839 24.7549 16.7805C25.2775 17.0902 25.484 17.4901 25.484 18.0515C25.4774 18.7484 24.9354 19.3096 24.2323 19.3096ZM26.2322 14.3935C25.8968 14.3935 25.6904 14.3097 25.4001 14.1419C20.8065 11.4 12.5936 10.7419 7.27744 12.2258C7.04523 12.2903 6.75487 12.3935 6.44509 12.3935C5.59354 12.3935 4.94192 11.7289 4.94192 10.8709C4.94192 9.99355 5.48398 9.49672 6.06457 9.32899C8.33553 8.66444 10.8774 8.34833 13.6452 8.34833C18.355 8.34833 23.2903 9.329 26.8968 11.4322C27.4001 11.7225 27.729 12.1225 27.729 12.8903C27.729 13.7678 27.0194 14.3935 26.2322 14.3935Z" fill="black"/>
</svg>
