<svg width="24" height="24" viewBox="0 0 24 24" fill="none" xmlns="http://www.w3.org/2000/svg">
<circle cx="12" cy="12" r="12" fill="#628FDB"/>
<path fill-rule="evenodd" clip-rule="evenodd" d="M12 24C18.6274 24 24 18.6274 24 12C24 5.37258 18.6274 0 12 0C5.37258 0 0 5.37258 0 12C0 18.6274 5.37258 24 12 24ZM13.9219 16.713V16.62L13.8328 16.6406C13.8623 16.6652 13.892 16.6893 13.9219 16.713ZM13.9219 18.9637V16.713C14.3204 17.0291 14.7594 17.2718 15.2391 17.4375C15.7078 17.6156 16.2234 17.7047 16.7391 17.7047C17.0672 17.7047 17.3156 17.6766 17.5359 17.625C17.7656 17.5688 17.9484 17.4938 18.0984 17.4C18.2484 17.3063 18.36 17.1938 18.4312 17.0625C18.5025 16.9312 18.5391 16.7906 18.5391 16.6406C18.5391 16.425 18.4781 16.2375 18.3609 16.0781C18.2531 15.9187 18.0938 15.7688 17.8922 15.6328C17.7047 15.4969 17.4703 15.3656 17.1891 15.2391C17.152 15.2224 17.1148 15.2056 17.0774 15.1887C16.8317 15.0779 16.5792 14.9639 16.2984 14.85C15.5016 14.475 14.8734 14.1 14.4703 13.5844C14.0625 13.1156 13.8609 12.5062 13.8609 11.8031C13.8609 11.2406 13.9688 10.7906 14.1891 10.3969C14.4234 9.975 14.7 9.66563 15.0797 9.4125C15.4547 9.15469 15.8766 8.96719 16.3922 8.85C16.9078 8.73281 17.4234 8.67188 17.9859 8.67188C18.5484 8.67188 19.0172 8.70469 19.4391 8.77031C19.8609 8.83594 20.2547 8.93906 20.6109 9.075V11.2781C20.4469 11.1562 20.2547 11.0484 20.0484 10.9547C19.8281 10.8609 19.6125 10.7859 19.3922 10.725C19.1719 10.6641 18.9516 10.6186 18.7359 10.5891C18.5297 10.5595 18.3234 10.545 18.1266 10.545C17.8406 10.545 17.5969 10.5684 17.3766 10.62C17.1516 10.6716 16.9641 10.7419 16.8141 10.8356C16.6641 10.9294 16.5473 11.0372 16.4625 11.1684C16.3777 11.2997 16.3359 11.445 16.3359 11.6044C16.3359 11.7778 16.3828 11.9325 16.4766 12.0731C16.5703 12.2091 16.7016 12.3403 16.875 12.4669C17.0297 12.5887 17.2406 12.7106 17.4844 12.8325C17.5913 12.8788 17.6942 12.9252 17.7976 12.9718C17.9662 13.0477 18.1364 13.1244 18.3281 13.2028C18.75 13.3809 19.125 13.5778 19.4531 13.7653C19.7812 13.9528 20.0578 14.1731 20.2969 14.4216C20.55 14.6559 20.7328 14.9372 20.8594 15.2653C20.9859 15.5934 21.0516 15.9637 21.0516 16.3903C21.0516 16.9997 20.9062 17.4684 20.7187 17.8903C20.5312 18.3122 20.2078 18.6262 19.8281 18.8747C19.4531 19.1044 19.0312 19.2825 18.5156 19.3903C18 19.4981 17.4844 19.5497 16.9219 19.5497C16.3594 19.5497 15.7969 19.5028 15.2812 19.4044C14.7656 19.3059 14.3016 19.1606 13.9219 18.9637ZM12.9844 10.8544H9.98438V19.4325H7.59375V10.8544H4.59375V8.9325H12.9844V10.8544Z" fill="black"/>
</svg>
