<svg width="32" height="32" viewBox="0 0 32 32" fill="none" xmlns="http://www.w3.org/2000/svg">
<circle cx="16" cy="16" r="16" fill="#628FDB"/>
<path fill-rule="evenodd" clip-rule="evenodd" d="M16 32C24.8366 32 32 24.8366 32 16C32 7.16344 24.8366 0 16 0C7.16344 0 0 7.16344 0 16C0 24.8366 7.16344 32 16 32ZM18.5625 22.284V22.16L18.4438 22.1875C18.483 22.2202 18.5226 22.2524 18.5625 22.284ZM18.5625 25.285V22.284C19.0938 22.7054 19.6793 23.0291 20.3188 23.25C20.9438 23.4875 21.6313 23.6063 22.3187 23.6063C22.7562 23.6063 23.0875 23.5688 23.3812 23.5C23.6875 23.425 23.9312 23.325 24.1312 23.2C24.3312 23.075 24.48 22.925 24.575 22.75C24.67 22.575 24.7187 22.3875 24.7187 22.1875C24.7187 21.9 24.6375 21.65 24.4812 21.4375C24.3375 21.225 24.125 21.025 23.8562 20.8438C23.6062 20.6625 23.2937 20.4875 22.9187 20.3188C22.8693 20.2965 22.8196 20.2741 22.7698 20.2516C22.4422 20.1038 22.1056 19.9519 21.7313 19.8C20.6688 19.3 19.8312 18.8 19.2938 18.1125C18.75 17.4875 18.4813 16.675 18.4813 15.7375C18.4813 14.9875 18.625 14.3875 18.9188 13.8625C19.2313 13.3 19.6 12.8875 20.1063 12.55C20.6063 12.2063 21.1688 11.9563 21.8563 11.8C22.5437 11.6438 23.2312 11.5625 23.9812 11.5625C24.7312 11.5625 25.3562 11.6062 25.9187 11.6937C26.4812 11.7812 27.0063 11.9187 27.4812 12.1V15.0375C27.2625 14.875 27.0063 14.7313 26.7312 14.6063C26.4375 14.4813 26.15 14.3812 25.8562 14.3C25.5625 14.2187 25.2687 14.1581 24.9812 14.1187C24.7062 14.0794 24.4312 14.06 24.1687 14.06C23.7875 14.06 23.4625 14.0912 23.1687 14.16C22.8687 14.2288 22.6187 14.3225 22.4187 14.4475C22.2188 14.5725 22.0631 14.7163 21.95 14.8913C21.8369 15.0663 21.7812 15.26 21.7812 15.4725C21.7812 15.7037 21.8438 15.91 21.9688 16.0975C22.0938 16.2787 22.2687 16.4537 22.5 16.6225C22.7062 16.785 22.9875 16.9475 23.3125 17.11C23.4551 17.1718 23.5922 17.2336 23.7302 17.2957C23.955 17.397 24.1818 17.4992 24.4375 17.6038C25 17.8412 25.5 18.1038 25.9375 18.3538C26.375 18.6038 26.7437 18.8975 27.0625 19.2288C27.4 19.5413 27.6437 19.9163 27.8125 20.3538C27.9812 20.7913 28.0687 21.285 28.0687 21.8538C28.0687 22.6663 27.875 23.2913 27.625 23.8538C27.375 24.4163 26.9437 24.835 26.4375 25.1663C25.9375 25.4725 25.375 25.71 24.6875 25.8538C24 25.9975 23.3125 26.0662 22.5625 26.0662C21.8125 26.0662 21.0625 26.0037 20.375 25.8725C19.6875 25.7412 19.0687 25.5475 18.5625 25.285ZM17.3125 14.4725H13.3125V25.91H10.125V14.4725H6.125V11.91H17.3125V14.4725Z" fill="black"/>
</svg>
