<svg width="512" height="512" viewBox="0 0 512 512" fill="none" xmlns="http://www.w3.org/2000/svg">
<path fill-rule="evenodd" clip-rule="evenodd" d="M256 512C397.385 512 512 397.385 512 256C512 114.615 397.385 0 256 0C114.615 0 0 114.615 0 256C0 397.385 114.615 512 256 512ZM297 356.545V354.56L295.1 355C295.729 355.524 296.362 356.039 297 356.545ZM297 404.56V356.545C305.501 363.287 314.868 368.465 325.1 372C335.1 375.8 346.1 377.7 357.1 377.7C364.1 377.7 369.4 377.1 374.1 376C379 374.8 382.9 373.2 386.1 371.2C389.3 369.2 391.68 366.8 393.2 364C394.72 361.2 395.5 358.2 395.5 355C395.5 350.4 394.2 346.4 391.7 343C389.4 339.6 386 336.4 381.7 333.5C377.7 330.6 372.7 327.8 366.7 325.1C365.908 324.743 365.114 324.385 364.316 324.025C359.075 321.66 353.689 319.23 347.7 316.8C330.7 308.8 317.3 300.8 308.7 289.8C300 279.8 295.7 266.8 295.7 251.8C295.7 239.8 298 230.2 302.7 221.8C307.7 212.8 313.6 206.2 321.7 200.8C329.7 195.3 338.7 191.3 349.7 188.8C360.7 186.3 371.7 185 383.7 185C395.7 185 405.7 185.7 414.7 187.1C423.7 188.5 432.1 190.7 439.7 193.6V240.6C436.2 238 432.1 235.7 427.7 233.7C423 231.7 418.4 230.1 413.7 228.8C409 227.5 404.3 226.53 399.7 225.9C395.3 225.27 390.9 224.96 386.7 224.96C380.6 224.96 375.4 225.46 370.7 226.56C365.9 227.66 361.9 229.16 358.7 231.16C355.5 233.16 353.01 235.46 351.2 238.26C349.39 241.06 348.5 244.16 348.5 247.56C348.5 251.26 349.5 254.56 351.5 257.56C353.5 260.46 356.3 263.26 360 265.96C363.3 268.56 367.8 271.16 373 273.76C375.282 274.749 377.477 275.737 379.684 276.732C383.28 278.352 386.91 279.987 391 281.66C400 285.46 408 289.66 415 293.66C422 297.66 427.9 302.36 433 307.66C438.4 312.66 442.3 318.66 445 325.66C447.7 332.66 449.1 340.56 449.1 349.66C449.1 362.66 446 372.66 442 381.66C438 390.66 431.1 397.36 423 402.66C415 407.56 406 411.36 395 413.66C384 415.96 373 417.06 361 417.06C349 417.06 337 416.06 326 413.96C315 411.86 305.1 408.76 297 404.56ZM277 231.56H213V414.56H162V231.56H98V190.56H277V231.56Z" fill="black"/>
</svg>
